#!OML:ASF E:\emotionWalksFemale\Project 1\Capture day 1\Session 1\Female1.ASF
:FULLY-SPECIFIED
:DEGREES
1367
root 9.28079 14.9729 -18.4938 -357.45 1.52446 -4.64934
lowerback 10.8246 0.67007 4.76987
upperback -2.34132 1.22623 -4.14043
thorax -8.42165 0.23305 -7.39404
lowerneck -7.17895 -3.9836 -10.9761
upperneck 9.32263 -5.33957 11.2686
head 4.5572 -2.42825 4.969
rclavicle -7.25564e-015 1.59028e-015
rhumerus -24.3007 36.2985 -113.264
rradius 29.5941
rwrist 16.9883
rhand -0.741615 -53.6291
rfingers 7.12502
rthumb 24.8798 -802.03
lclavicle -7.25564e-015 1.59028e-015
lhumerus -57.6335 -60.2848 145.207
lradius 104.38
lwrist 27.5596
lhand 25.8097 -22.5309
lfingers 7.12502
lthumb 49.9035 -1.25761
rfemur -1.12477 8.56827 36.4208
rtibia 31.153
rfoot -20.0419 -19.8639
rtoes 10.9307
lfemur -41.6042 -17.2712 -7.00585
ltibia 32.0043
lfoot -17.3711 12.1519
ltoes -22.1549
1368
root 9.2951 14.9828 -18.387 -357.315 1.2651 -4.58107
lowerback 10.7182 0.758212 4.62304
upperback -2.45532 1.31414 -4.21043
thorax -8.47102 0.276328 -7.40087
lowerneck -6.6111 -3.9484 -10.9001
upperneck 8.90112 -5.32759 11.3068
head 4.331 -2.4368 4.97508
rclavicle -2.38542e-015 -4.77083e-015
rhumerus -24.6975 35.991 -113.409
rradius 29.9224
rwrist 17.4795
rhand -0.118735 -53.9155
rfingers 7.12502
rthumb 25.4766 -802.233
lclavicle -2.38542e-015 -4.77083e-015
lhumerus -58.5943 -60.3889 146.096
lradius 104.53
lwrist 28.2354
lhand 23.7584 -22.3464
lfingers 7.12502
lthumb 48.0189 -0.14241
rfemur -0.914445 8.72959 36.3089
rtibia 31.3319
rfoot -19.9862 -19.4459
rtoes 10.9861
lfemur -41.3961 -17.193 -7.12236
ltibia 31.8994
lfoot -17.1758 12.3409
ltoes -23.5304
1369
root 9.31204 14.9855 -18.279 -357.205 1.10987 -4.51301
lowerback 10.6698 0.799713 4.49053
upperback -2.56179 1.34647 -4.24196
thorax -8.55546 0.291706 -7.36644
lowerneck -6.27875 -3.92008 -11.0471
upperneck 8.69749 -5.31379 11.5262
head 4.22138 -2.43544 5.07453
rclavicle -1.02374e-014 4.77083e-015
rhumerus -24.931 35.9635 -113.518
rradius 29.9246
rwrist 17.4218
rhand 1.0271 -53.648
rfingers 7.12502
rthumb 26.5738 -801.804
lclavicle -1.02374e-014 4.77083e-015
lhumerus -58.5386 -60.1205 145.914
lradius 104.665
lwrist 27.8538
lhand 24.5493 -22.8561
lfingers 7.12502
lthumb 48.747 -0.999454
rfemur -0.664094 8.71245 36.1907
rtibia 31.4972
rfoot -19.7263 -19.1328
rtoes 10.8583
lfemur -41.1989 -17.0552 -7.35997
ltibia 31.9029
lfoot -17.4433 12.5059
ltoes -24.228
1370
root 9.33272 14.9805 -18.1683 -357.144 0.990421 -4.43713
lowerback 10.6682 0.787303 4.41749
upperback -2.55939 1.31425 -4.30505
thorax -8.55721 0.277818 -7.388
lowerneck -6.46286 -3.91045 -11.0316
upperneck 8.70325 -5.28916 11.5621
head 4.252 -2.41548 5.08257
rclavicle -1.22253e-014 3.02153e-014
rhumerus -24.7453 36.0055 -113.527
rradius 29.5583
rwrist 17.5124
rhand 1.5841 -53.4095
rfingers 7.12502
rthumb 27.1068 -801.483
lclavicle -1.22253e-014 3.02153e-014
lhumerus -57.8106 -59.8836 144.976
lradius 104.824
lwrist 27.1662
lhand 26.6889 -23.0253
lfingers 7.12502
lthumb 50.7071 -2.18189
rfemur -0.282872 8.55776 36.0435
rtibia 31.604
rfoot -19.0384 -18.9155
rtoes 12.0012
lfemur -40.9794 -16.9074 -7.69256
ltibia 32.0161
lfoot -16.931 12.6217
ltoes -25.0282
1371
root 9.35344 14.9742 -18.0537 -357.139 0.843476 -4.42608
lowerback 10.6786 0.780932 4.41343
upperback -2.52786 1.29979 -4.37574
thorax -8.5301 0.270667 -7.46042
lowerneck -6.64398 -3.89422 -10.8771
upperneck 8.72715 -5.25601 11.4477
head 4.27895 -2.39395 5.02007
rclavicle 1.40143e-014 -3.18055e-014
rhumerus -24.52 35.7883 -113.561
rradius 29.1168
rwrist 18.0805
rhand 1.61838 -53.3104
rfingers 7.12502
rthumb 27.1396 -801.379
lclavicle 1.40143e-014 -3.18055e-014
lhumerus -57.671 -59.8614 144.679
lradius 104.98
lwrist 26.8179
lhand 27.0457 -22.9611
lfingers 7.12502
lthumb 51.0323 -2.29778
rfemur 0.225864 8.46402 35.9919
rtibia 31.6075
rfoot -17.9549 -18.8527
rtoes 14.5064
lfemur -40.6479 -16.6275 -8.05741
ltibia 32.2509
lfoot -16.837 12.6289
ltoes -24.6403
1372
root 9.37551 14.9693 -17.94 -357.139 0.725265 -4.50171
lowerback 10.6804 0.800361 4.50756
upperback -2.58157 1.33705 -4.39607
thorax -8.58213 0.27954 -7.54655
lowerneck -6.40921 -3.90285 -10.7743
upperneck 8.6851 -5.27965 11.2809
head 4.22214 -2.41755 4.95104
rclavicle -5.1684e-015 -1.11319e-014
rhumerus -24.6732 36.0671 -113.787
rradius 28.8399
rwrist 18.0486
rhand 1.39909 -53.137
rfingers 7.12502
rthumb 26.9298 -801.238
lclavicle -5.1684e-015 -1.11319e-014
lhumerus -58.0461 -59.8332 145.06
lradius 105.08
lwrist 26.4945
lhand 26.0703 -23.2212
lfingers 7.12502
lthumb 50.1419 -2.07334
rfemur 0.719259 8.39679 36.0312
rtibia 31.5597
rfoot -17.3626 -18.773
rtoes 14.8177
lfemur -40.3088 -16.3066 -8.37328
ltibia 32.5637
lfoot -16.8078 12.5466
ltoes -23.1975
1373
root 9.39884 14.9675 -17.8267 -357.109 0.618871 -4.51673
lowerback 10.5806 0.821006 4.50111
upperback -2.56701 1.36339 -4.36937
thorax -8.50436 0.297415 -7.5123
lowerneck -6.19547 -3.89149 -10.8215
upperneck 8.46104 -5.25939 11.2475
head 4.11669 -2.41811 4.95175
rclavicle 2.6339e-014 1.59028e-015
rhumerus -24.7856 36.2999 -113.768
rradius 28.8698
rwrist 18.3014
rhand 1.36888 -53.1218
rfingers 7.12502
rthumb 26.9009 -801.228
lclavicle 2.6339e-014 1.59028e-015
lhumerus -57.8848 -59.9803 145.029
lradius 105.234
lwrist 26.5071
lhand 25.831 -23.318
lfingers 7.12502
lthumb 49.923 -2.0549
rfemur 1.17606 8.32781 35.967
rtibia 31.5171
rfoot -17.4367 -18.6995
rtoes 12.0647
lfemur -39.9351 -15.8772 -8.85409
ltibia 32.9009
lfoot -16.7554 12.5415
ltoes -23.1377
1374
root 9.4174 14.968 -17.7093 -357.077 0.49695 -4.51605
lowerback 10.4484 0.850535 4.37545
upperback -2.46829 1.38544 -4.3364
thorax -8.31875 0.326361 -7.3958
lowerneck -6.2453 -3.86108 -10.9628
upperneck 8.15471 -5.19748 11.4502
head 4.03507 -2.38263 5.04212
rclavicle 1.94809e-014 1.59028e-015
rhumerus -24.6747 36.5073 -113.618
rradius 28.8866
rwrist 18.7734
rhand 1.31749 -53.4135
rfingers 7.12502
rthumb 26.8517 -801.527
lclavicle 1.94809e-014 1.59028e-015
lhumerus -57.5991 -60.108 144.678
lradius 105.537
lwrist 26.4764
lhand 26.2993 -23.2538
lfingers 7.12502
lthumb 50.3513 -2.21746
rfemur 1.63674 8.38218 35.9409
rtibia 31.4831
rfoot -17.3785 -18.7781
rtoes 9.7601
lfemur -39.4597 -15.2621 -9.44031
ltibia 33.2428
lfoot -16.6564 12.589
ltoes -25.4928
1375
root 9.44016 14.9692 -17.5898 -357.092 0.447368 -4.46673
lowerback 10.5065 0.850288 4.26567
upperback -2.4572 1.37147 -4.3367
thorax -8.34435 0.324334 -7.33222
lowerneck -6.5127 -3.85065 -10.9952
upperneck 8.30075 -5.16997 11.4948
head 4.12289 -2.35924 5.06057
rclavicle -2.33572e-014 6.36111e-015
rhumerus -24.7308 37.1272 -113.734
rradius 28.7531
rwrist 18.6131
rhand 1.24934 -53.9487
rfingers 7.12502
rthumb 26.7865 -802.072
lclavicle -2.33572e-014 6.36111e-015
lhumerus -57.7235 -59.919 144.63
lradius 105.795
lwrist 26.0137
lhand 26.2068 -23.2007
lfingers 7.12502
lthumb 50.2668 -2.11916
rfemur 2.17316 8.25431 35.8144
rtibia 31.4005
rfoot -17.1401 -18.6097
rtoes 8.85612
lfemur -38.9271 -14.8136 -10.0758
ltibia 33.5539
lfoot -16.5036 12.5614
ltoes -27.9071
1376
root 9.46479 14.9735 -17.4634 -357.102 0.384168 -4.458
lowerback 10.5414 0.838151 4.2166
upperback -2.52858 1.35026 -4.31525
thorax -8.44698 0.311072 -7.28124
lowerneck -6.51652 -3.74093 -11.1218
upperneck 8.50793 -5.03251 11.5938
head 4.17519 -2.28986 5.12398
rclavicle -1.43125e-014 -3.97569e-014
rhumerus -25.0811 37.5781 -114.015
rradius 28.7164
rwrist 18.5834
rhand 1.33656 -54.1528
rfingers 7.12502
rthumb 26.8699 -802.263
lclavicle -1.43125e-014 -3.97569e-014
lhumerus -57.7651 -59.6075 144.614
lradius 105.911
lwrist 25.4855
lhand 26.2982 -23.3374
lfingers 7.12502
lthumb 50.3503 -2.30055
rfemur 2.7448 8.05475 35.6798
rtibia 31.2166
rfoot -16.8009 -18.3161
rtoes 7.81583
lfemur -38.45 -14.6013 -10.501
ltibia 33.8167
lfoot -16.3886 12.2831
ltoes -28.0484
1377
root 9.48903 14.9894 -17.3352 -357.023 0.357448 -4.45557
lowerback 10.328 0.846663 4.21409
upperback -2.52912 1.35561 -4.32151
thorax -8.32278 0.318896 -7.27763
lowerneck -6.20108 -3.66432 -11.2623
upperneck 8.25469 -4.94461 11.7812
head 4.0434 -2.25314 5.21621
rclavicle 3.01159e-014 -3.02153e-014
rhumerus -25.228 37.5729 -114.059
rradius 28.8234
rwrist 18.9848
rhand 1.39108 -53.8427
rfingers 7.12502
rthumb 26.9221 -801.945
lclavicle 3.01159e-014 -3.02153e-014
lhumerus -57.616 -59.6903 144.501
lradius 106.008
lwrist 25.4228
lhand 26.3317 -23.3573
lfingers 7.12502
lthumb 50.3809 -2.33687
rfemur 3.23466 7.92774 35.5404
rtibia 30.968
rfoot -16.3394 -17.9955
rtoes 6.86966
lfemur -38.126 -14.6687 -10.7154
ltibia 34.016
lfoot -15.8913 11.9237
ltoes -27.2098
1378
root 9.51435 15.0123 -17.2082 -356.924 0.356631 -4.38258
lowerback 10.1296 0.879899 4.19794
upperback -2.53698 1.38712 -4.39841
thorax -8.21028 0.337402 -7.34919
lowerneck -6.05176 -3.71287 -11.1287
upperneck 8.15563 -5.02588 11.7298
head 3.99358 -2.29648 5.17335
rclavicle -1.66979e-014 2.8625e-014
rhumerus -25.2471 37.6861 -114.108
rradius 28.9033
rwrist 18.7736
rhand 1.50823 -53.7293
rfingers 7.12502
rthumb 27.0342 -801.814
lclavicle -1.66979e-014 2.8625e-014
lhumerus -57.7781 -60.0293 144.684
lradius 106.102
lwrist 25.6506
lhand 25.7936 -23.0284
lfingers 7.12502
lthumb 49.8888 -1.74749
rfemur 3.71533 7.80804 35.3124
rtibia 30.7166
rfoot -15.8037 -17.5308
rtoes 6.85446
lfemur -37.8775 -14.8764 -10.9459
ltibia 34.1644
lfoot -14.7471 11.7712
ltoes -28.3549
1379
root 9.54004 15.031 -17.0831 -356.767 0.399985 -4.21356
lowerback 9.98334 0.907521 4.0664
upperback -2.64377 1.39588 -4.47829
thorax -8.24107 0.342201 -7.35995
lowerneck -5.88691 -3.74427 -11.0016
upperneck 8.15836 -5.09014 11.6616
head 3.96916 -2.33238 5.12831
rclavicle 0 4.92986e-014
rhumerus -25.4421 38.0388 -114.306
rradius 28.9127
rwrist 18.3113
rhand 1.90908 -53.8717
rfingers 7.12502
rthumb 27.4176 -801.897
lclavicle 0 4.92986e-014
lhumerus -57.9374 -60.2192 144.905
lradius 106.186
lwrist 25.8884
lhand 25.4661 -22.6329
lfingers 7.12502
lthumb 49.5887 -1.19686
rfemur 4.09463 7.65416 34.9724
rtibia 30.541
rfoot -15.2535 -17.1046
rtoes 7.0703
lfemur -37.7108 -15.0272 -11.2872
ltibia 34.2631
lfoot -13.6698 11.5503
ltoes -29.5847
1380
root 9.56403 15.0441 -16.9552 -356.613 0.531948 -3.94485
lowerback 9.69369 0.934541 3.75399
upperback -2.63258 1.38113 -4.53487
thorax -8.06733 0.356766 -7.22417
lowerneck -5.81999 -3.76316 -10.9195
upperneck 7.97534 -5.10848 11.5833
head 3.90124 -2.34531 5.08852
rclavicle 3.01159e-014 -2.54444e-014
rhumerus -25.4575 38.2185 -114.25
rradius 28.9343
rwrist 18.4231
rhand 2.11634 -53.8128
rfingers 7.12502
rthumb 27.6158 -801.806
lclavicle 3.01159e-014 -2.54444e-014
lhumerus -57.8028 -60.6186 144.965
lradius 106.287
lwrist 26.1842
lhand 24.5402 -22.4003
lfingers 7.12502
lthumb 48.7387 -0.539668
rfemur 4.42663 7.48803 34.5509
rtibia 30.4605
rfoot -14.9841 -16.5436
rtoes 8.08487
lfemur -37.5175 -15.0622 -11.7932
ltibia 34.3492
lfoot -13.1612 10.9916
ltoes -28.1518
